<mxfile host="Electron" modified="2024-04-11T13:59:46.674Z" agent="Mozilla/5.0 (Windows NT 10.0; Win64; x64) AppleWebKit/537.36 (KHTML, like Gecko) draw.io/24.1.0 Chrome/120.0.6099.109 Electron/28.1.0 Safari/537.36" etag="d7P7busLXTtqkO1UR8Ay" version="24.1.0" type="device" pages="2">
  <diagram id="4VbordraoObzrbYQRHzU" name="run">
    <mxGraphModel dx="1430" dy="826" grid="1" gridSize="10" guides="1" tooltips="1" connect="1" arrows="1" fold="1" page="1" pageScale="1" pageWidth="1169" pageHeight="827" math="0" shadow="0">
      <root>
        <mxCell id="0" />
        <mxCell id="1" parent="0" />
        <mxCell id="J7IGNAsHjFl7qfXv-FmI-3" style="edgeStyle=orthogonalEdgeStyle;rounded=0;orthogonalLoop=1;jettySize=auto;html=1;exitX=1;exitY=0.5;exitDx=0;exitDy=0;entryX=0;entryY=0.5;entryDx=0;entryDy=0;" edge="1" parent="1" source="J7IGNAsHjFl7qfXv-FmI-1" target="J7IGNAsHjFl7qfXv-FmI-2">
          <mxGeometry relative="1" as="geometry" />
        </mxCell>
        <mxCell id="J7IGNAsHjFl7qfXv-FmI-1" value="&lt;b&gt;Connect&lt;/b&gt;&lt;div&gt;&lt;br&gt;&lt;/div&gt;&lt;div&gt;Connect to database&lt;/div&gt;&lt;div&gt;Open cursor&lt;/div&gt;&lt;div&gt;&lt;br&gt;&lt;/div&gt;&lt;div&gt;&lt;font face=&quot;Consolas&quot;&gt;fn_connect()&lt;/font&gt;&lt;/div&gt;" style="rounded=1;whiteSpace=wrap;html=1;fontSize=10;align=left;spacingLeft=4;spacingRight=4;verticalAlign=top;" vertex="1" parent="1">
          <mxGeometry x="40" y="65" width="180" height="90" as="geometry" />
        </mxCell>
        <mxCell id="J7IGNAsHjFl7qfXv-FmI-5" style="edgeStyle=orthogonalEdgeStyle;rounded=0;orthogonalLoop=1;jettySize=auto;html=1;exitX=1;exitY=0.5;exitDx=0;exitDy=0;entryX=0;entryY=0.5;entryDx=0;entryDy=0;" edge="1" parent="1" source="J7IGNAsHjFl7qfXv-FmI-2" target="J7IGNAsHjFl7qfXv-FmI-4">
          <mxGeometry relative="1" as="geometry" />
        </mxCell>
        <mxCell id="J7IGNAsHjFl7qfXv-FmI-2" value="&lt;b&gt;Iterate&lt;/b&gt;&lt;div&gt;&lt;br&gt;&lt;/div&gt;&lt;div&gt;Iterate until the specified duration in seconds is exceeded&lt;/div&gt;&lt;div&gt;&lt;br&gt;&lt;/div&gt;" style="rounded=1;whiteSpace=wrap;html=1;fontSize=10;align=left;spacingLeft=4;spacingRight=4;verticalAlign=top;arcSize=8;" vertex="1" parent="1">
          <mxGeometry x="320" y="20" width="280" height="180" as="geometry" />
        </mxCell>
        <mxCell id="J7IGNAsHjFl7qfXv-FmI-4" value="&lt;b&gt;Close&lt;/b&gt;&lt;div&gt;&lt;br&gt;&lt;/div&gt;&lt;div&gt;Close cursor and connection&lt;/div&gt;&lt;div&gt;&lt;br&gt;&lt;/div&gt;&lt;div&gt;&lt;br&gt;&lt;/div&gt;&lt;div&gt;&lt;font face=&quot;Consolas&quot;&gt;fn_close()&lt;/font&gt;&lt;/div&gt;" style="rounded=1;whiteSpace=wrap;html=1;fontSize=10;align=left;spacingLeft=4;spacingRight=4;verticalAlign=top;" vertex="1" parent="1">
          <mxGeometry x="700" y="65" width="180" height="90" as="geometry" />
        </mxCell>
        <mxCell id="tFM_pPSKWnTr8qmFiJy1-2" value="" style="rounded=1;whiteSpace=wrap;html=1;fontSize=10;align=left;spacingLeft=4;spacingRight=4;verticalAlign=top;" vertex="1" parent="1">
          <mxGeometry x="360" y="80" width="180" height="90" as="geometry" />
        </mxCell>
        <mxCell id="tFM_pPSKWnTr8qmFiJy1-3" value="" style="rounded=1;whiteSpace=wrap;html=1;fontSize=10;align=left;spacingLeft=4;spacingRight=4;verticalAlign=top;" vertex="1" parent="1">
          <mxGeometry x="370" y="90" width="180" height="90" as="geometry" />
        </mxCell>
        <mxCell id="tFM_pPSKWnTr8qmFiJy1-4" value="&lt;b&gt;Run&lt;/b&gt;&lt;div&gt;&lt;br&gt;&lt;/div&gt;&lt;div&gt;Generate data for single iteration&lt;/div&gt;&lt;div&gt;Write data to the database&lt;/div&gt;&lt;div&gt;&lt;br&gt;&lt;/div&gt;&lt;div&gt;&lt;font face=&quot;Consolas&quot;&gt;fn_run()&lt;/font&gt;&lt;/div&gt;" style="rounded=1;whiteSpace=wrap;html=1;fontSize=10;align=left;spacingLeft=4;spacingRight=4;verticalAlign=top;" vertex="1" parent="1">
          <mxGeometry x="380" y="100" width="180" height="90" as="geometry" />
        </mxCell>
      </root>
    </mxGraphModel>
  </diagram>
  <diagram name="driver" id="74TD7CM1vhavtygQ4nb6">
    <mxGraphModel dx="1430" dy="826" grid="1" gridSize="10" guides="1" tooltips="1" connect="1" arrows="1" fold="1" page="1" pageScale="1" pageWidth="1169" pageHeight="827" math="0" shadow="0">
      <root>
        <mxCell id="0" />
        <mxCell id="1" parent="0" />
        <mxCell id="iXItGQfJ3jB6MkR89S6P-10" style="edgeStyle=orthogonalEdgeStyle;rounded=0;orthogonalLoop=1;jettySize=auto;html=1;exitX=1;exitY=0.5;exitDx=0;exitDy=0;entryX=0;entryY=0.5;entryDx=0;entryDy=0;" edge="1" parent="1" source="iXItGQfJ3jB6MkR89S6P-2" target="iXItGQfJ3jB6MkR89S6P-6">
          <mxGeometry relative="1" as="geometry" />
        </mxCell>
        <mxCell id="iXItGQfJ3jB6MkR89S6P-2" value="" style="rounded=1;whiteSpace=wrap;html=1;fontSize=10;align=left;spacingLeft=4;spacingRight=4;verticalAlign=top;" vertex="1" parent="1">
          <mxGeometry x="250" y="40" width="180" height="90" as="geometry" />
        </mxCell>
        <mxCell id="iXItGQfJ3jB6MkR89S6P-8" style="edgeStyle=orthogonalEdgeStyle;rounded=0;orthogonalLoop=1;jettySize=auto;html=1;exitX=1;exitY=0.5;exitDx=0;exitDy=0;entryX=0;entryY=0.5;entryDx=0;entryDy=0;" edge="1" parent="1" source="iXItGQfJ3jB6MkR89S6P-1" target="iXItGQfJ3jB6MkR89S6P-2">
          <mxGeometry relative="1" as="geometry" />
        </mxCell>
        <mxCell id="iXItGQfJ3jB6MkR89S6P-1" value="&lt;b&gt;Initialize&lt;/b&gt;&lt;div&gt;&lt;br&gt;&lt;/div&gt;&lt;div&gt;Truncate target table&lt;/div&gt;&lt;div&gt;&lt;br&gt;&lt;/div&gt;&lt;div&gt;&lt;font face=&quot;Consolas&quot;&gt;python3 run-gen.py -a init&lt;/font&gt;&lt;/div&gt;" style="rounded=1;whiteSpace=wrap;html=1;fontSize=10;align=left;spacingLeft=4;spacingRight=4;verticalAlign=top;" vertex="1" parent="1">
          <mxGeometry x="40" y="40" width="180" height="90" as="geometry" />
        </mxCell>
        <mxCell id="iXItGQfJ3jB6MkR89S6P-3" value="" style="rounded=1;whiteSpace=wrap;html=1;fontSize=10;align=left;spacingLeft=4;spacingRight=4;verticalAlign=top;" vertex="1" parent="1">
          <mxGeometry x="260" y="50" width="180" height="90" as="geometry" />
        </mxCell>
        <mxCell id="iXItGQfJ3jB6MkR89S6P-4" value="" style="rounded=1;whiteSpace=wrap;html=1;fontSize=10;align=left;spacingLeft=4;spacingRight=4;verticalAlign=top;" vertex="1" parent="1">
          <mxGeometry x="270" y="60" width="180" height="90" as="geometry" />
        </mxCell>
        <mxCell id="iXItGQfJ3jB6MkR89S6P-5" value="&lt;b&gt;Run&lt;/b&gt;&lt;div&gt;&lt;br&gt;&lt;/div&gt;&lt;div&gt;Run load into target table in parallel&lt;/div&gt;&lt;div&gt;Stop after defined number of seconds&lt;/div&gt;&lt;div&gt;&lt;br&gt;&lt;/div&gt;&lt;div&gt;&lt;font face=&quot;Consolas&quot;&gt;python3 run-gen.py -a run &amp;amp;&lt;/font&gt;&lt;/div&gt;" style="rounded=1;whiteSpace=wrap;html=1;fontSize=10;align=left;spacingLeft=4;spacingRight=4;verticalAlign=top;" vertex="1" parent="1">
          <mxGeometry x="280" y="70" width="180" height="90" as="geometry" />
        </mxCell>
        <mxCell id="iXItGQfJ3jB6MkR89S6P-11" style="edgeStyle=orthogonalEdgeStyle;rounded=0;orthogonalLoop=1;jettySize=auto;html=1;exitX=1;exitY=0.5;exitDx=0;exitDy=0;entryX=0;entryY=0.5;entryDx=0;entryDy=0;" edge="1" parent="1" source="iXItGQfJ3jB6MkR89S6P-6" target="iXItGQfJ3jB6MkR89S6P-7">
          <mxGeometry relative="1" as="geometry" />
        </mxCell>
        <mxCell id="iXItGQfJ3jB6MkR89S6P-6" value="&lt;b&gt;Wait&lt;/b&gt;&lt;div&gt;&lt;br&gt;&lt;/div&gt;&lt;div&gt;Wait for all the parallel runs to finish&lt;/div&gt;&lt;div&gt;&lt;br&gt;&lt;/div&gt;&lt;div&gt;&lt;font face=&quot;Consolas&quot;&gt;wait&lt;/font&gt;&lt;/div&gt;" style="rounded=1;whiteSpace=wrap;html=1;fontSize=10;align=left;spacingLeft=4;spacingRight=4;verticalAlign=top;" vertex="1" parent="1">
          <mxGeometry x="490" y="40" width="180" height="90" as="geometry" />
        </mxCell>
        <mxCell id="iXItGQfJ3jB6MkR89S6P-7" value="&lt;b&gt;Close&lt;/b&gt;&lt;div&gt;&lt;br&gt;&lt;/div&gt;&lt;div&gt;Write load statistics to out directory&lt;/div&gt;&lt;div&gt;&lt;br&gt;&lt;/div&gt;&lt;div&gt;&lt;font face=&quot;Consolas&quot;&gt;python3 run-gen.py -a close&lt;/font&gt;&lt;/div&gt;" style="rounded=1;whiteSpace=wrap;html=1;fontSize=10;align=left;spacingLeft=4;spacingRight=4;verticalAlign=top;" vertex="1" parent="1">
          <mxGeometry x="700" y="40" width="180" height="90" as="geometry" />
        </mxCell>
      </root>
    </mxGraphModel>
  </diagram>
</mxfile>
